<svg version="1.2" xmlns="http://www.w3.org/2000/svg" xmlns:xlink="http://www.w3.org/1999/xlink" overflow="visible" preserveAspectRatio="none" viewBox="0 0 302 162" xml:space="preserve" height="171" width="320"><g transform="translate(1, 1)"><g transform="matrix(1,0,0,1,11.5019,-40)" id="illustration">
        <g transform="matrix(1.41927,0,0,1.41927,-90.3385,2.94074)">
            <circle style="fill:rgb(252,246,229);" r="47.912" cy="78.955" cx="201.75" vector-effect="non-scaling-stroke"/>
        </g>
        <g transform="matrix(1.31493,0,0,1,-54.6048,34.4844)" id="sol">
            <path style="fill:none;stroke:rgb(20,46,123);stroke-width:0.86px;" d="M41.527,165.516L242.298,165.516" vector-effect="non-scaling-stroke"/>
        </g>
        <g transform="matrix(0.0298848,0,0,1,265.759,34.4844)" id="sol1">
            <path style="fill:none;stroke:rgb(20,46,123);stroke-width:0.71px;" d="M41.527,165.516L242.298,165.516" vector-effect="non-scaling-stroke"/>
        </g>
        <g transform="matrix(1,0,0,1,-30,45)">
            <g transform="matrix(1.71615,0,0,1.89093,-63.8985,-157.313)">
                <path style="fill:white;" d="M163.097,102.972C163.097,102.272 162.47,101.703 161.699,101.703L59.609,101.703C58.838,101.703 58.211,102.272 58.211,102.972L58.211,163.895C58.211,164.595 58.838,165.164 59.609,165.164L161.699,165.164C162.47,165.164 163.097,164.595 163.097,163.895L163.097,102.972Z" vector-effect="non-scaling-stroke"/>
                <path style="fill:rgb(20,46,123);" d="M163.388,102.972C163.388,102.126 162.631,101.439 161.699,101.439C161.699,101.439 59.609,101.439 59.609,101.439C58.677,101.439 57.92,102.126 57.92,102.972L57.92,163.895C57.92,164.741 58.677,165.428 59.609,165.428L161.699,165.428C162.631,165.428 163.388,164.741 163.388,163.895L163.388,102.972ZM162.806,102.972L162.806,163.895C162.806,164.449 162.31,164.9 161.699,164.9C161.699,164.9 59.609,164.9 59.609,164.9C58.998,164.9 58.502,164.449 58.502,163.895C58.502,163.895 58.502,102.972 58.502,102.972C58.502,102.418 58.998,101.968 59.609,101.968L161.699,101.968C162.31,101.968 162.806,102.418 162.806,102.972Z" vector-effect="non-scaling-stroke"/>
            </g>
            <g transform="matrix(1,0,0,1,0,4)" id="rows">
                <g transform="matrix(1.55112,0,0,1,-16.9034,-41.3969)">
                    <path style="fill:none;stroke:rgb(20,46,123);stroke-width:0.38px;stroke-dasharray:0.77,1.15,0,0;" d="M42.488,115.397L141.77,115.397" vector-effect="non-scaling-stroke"/>
                </g>
                <g transform="matrix(1.55112,0,0,1,-16.9034,-28.3969)">
                    <path style="fill:none;stroke:rgb(20,46,123);stroke-width:0.38px;stroke-dasharray:0.77,1.15,0,0;" d="M42.488,115.397L141.77,115.397" vector-effect="non-scaling-stroke"/>
                </g>
                <g transform="matrix(1.55112,0,0,1,-16.9034,-15.3969)">
                    <path style="fill:none;stroke:rgb(20,46,123);stroke-width:0.38px;stroke-dasharray:0.77,1.15,0,0;" d="M42.488,115.397L141.77,115.397" vector-effect="non-scaling-stroke"/>
                </g>
                <g transform="matrix(1.55112,0,0,1,-16.9034,-2.39687)">
                    <path style="fill:none;stroke:rgb(20,46,123);stroke-width:0.38px;stroke-dasharray:0.77,1.15,0,0;" d="M42.488,115.397L141.77,115.397" vector-effect="non-scaling-stroke"/>
                </g>
                <g transform="matrix(1.55112,0,0,1,-16.9034,10.6031)">
                    <path style="fill:none;stroke:rgb(20,46,123);stroke-width:0.38px;stroke-dasharray:0.77,1.15,0,0;" d="M42.488,115.397L141.77,115.397" vector-effect="non-scaling-stroke"/>
                </g>
            </g>
            <g transform="matrix(1,0,0,1,0,4)" id="columns">
                <g transform="matrix(1,0,0,0.999038,67.5306,-44.8595)">
                    <path style="fill:none;stroke:rgb(20,46,123);stroke-width:0.5px;stroke-dasharray:1,1.5,0,0;" d="M19.469,107.927L19.469,184" vector-effect="non-scaling-stroke"/>
                </g>
                <g transform="matrix(1,0,0,0.999038,106.531,-44.8595)">
                    <path style="fill:none;stroke:rgb(20,46,123);stroke-width:0.5px;stroke-dasharray:1,1.5,0,0;" d="M19.469,107.927L19.469,184" vector-effect="non-scaling-stroke"/>
                </g>
                <g transform="matrix(1,0,0,0.999038,145.531,-44.8595)">
                    <path style="fill:none;stroke:rgb(20,46,123);stroke-width:0.5px;stroke-dasharray:1,1.5,0,0;" d="M19.469,107.927L19.469,184" vector-effect="non-scaling-stroke"/>
                </g>
            </g>
            <g transform="matrix(1.28183,0,0,0.708343,-7.93706,-14.9943)">
                <path style="fill:white;stroke:rgb(20,46,123);stroke-width:0.97px;" d="M164.559,90.767C164.559,89.754 164.105,88.932 163.545,88.932L45.433,88.932C44.873,88.932 44.419,89.754 44.419,90.767L44.419,105.449C44.419,106.462 44.873,107.285 45.433,107.285L163.545,107.285C164.105,107.285 164.559,106.462 164.559,105.449L164.559,90.767Z" vector-effect="non-scaling-stroke"/>
            </g>
            <g transform="matrix(1.25686,0,0,0.54488,-3.82789,2.54281)">
                <path style="fill:rgb(20,46,123);fill-opacity:0.06;" d="M164.559,90.767C164.559,89.754 164.203,88.932 163.764,88.932L45.214,88.932C44.775,88.932 44.419,89.754 44.419,90.767L44.419,105.449C44.419,106.462 44.775,107.285 45.214,107.285L163.764,107.285C164.203,107.285 164.559,106.462 164.559,105.449L164.559,90.767Z" vector-effect="non-scaling-stroke"/>
            </g>
            <g transform="matrix(1,0,0,1,4,-45)">
                <g transform="matrix(0.965926,0.258819,-0.258819,0.965926,29.8145,-10.5037)">
                    <g transform="matrix(1,0,0,2.10353,-13.5019,-28.2397)">
                        <path style="fill:rgb(20,46,123);fill-opacity:0.39;" d="M67.051,59.483L67.051,63.286C67.051,63.352 67.163,63.405 67.301,63.405C67.439,63.405 67.551,63.352 67.551,63.286L67.551,59.483C67.551,59.417 67.439,59.364 67.301,59.364C67.163,59.364 67.051,59.417 67.051,59.483Z" vector-effect="non-scaling-stroke"/>
                    </g>
                    <g transform="matrix(1,0,0,1.31471,-13.5019,20.6818)">
                        <path style="fill:rgb(20,46,123);" d="M67.051,59.483L67.051,63.286C67.051,63.391 67.163,63.476 67.301,63.476C67.439,63.476 67.551,63.391 67.551,63.286L67.551,59.483C67.551,59.378 67.439,59.293 67.301,59.293C67.163,59.293 67.051,59.378 67.051,59.483Z" vector-effect="non-scaling-stroke"/>
                    </g>
                </g>
                <g transform="matrix(0.965926,0.258819,-0.258819,0.965926,34.8145,-10.5037)">
                    <g transform="matrix(1,0,0,2.10353,-13.5019,-28.2397)">
                        <path style="fill:rgb(20,46,123);fill-opacity:0.39;" d="M67.051,59.483L67.051,63.286C67.051,63.352 67.163,63.405 67.301,63.405C67.439,63.405 67.551,63.352 67.551,63.286L67.551,59.483C67.551,59.417 67.439,59.364 67.301,59.364C67.163,59.364 67.051,59.417 67.051,59.483Z" vector-effect="non-scaling-stroke"/>
                    </g>
                    <g transform="matrix(1,0,0,1.31471,-13.5019,20.6818)">
                        <path style="fill:rgb(20,46,123);" d="M67.051,59.483L67.051,63.286C67.051,63.391 67.163,63.476 67.301,63.476C67.439,63.476 67.551,63.391 67.551,63.286L67.551,59.483C67.551,59.378 67.439,59.293 67.301,59.293C67.163,59.293 67.051,59.378 67.051,59.483Z" vector-effect="non-scaling-stroke"/>
                    </g>
                </g>
                <g transform="matrix(0.965926,0.258819,-0.258819,0.965926,39.8145,-10.5037)">
                    <g transform="matrix(1,0,0,2.10353,-13.5019,-28.2397)">
                        <path style="fill:rgb(20,46,123);fill-opacity:0.39;" d="M67.051,59.483L67.051,63.286C67.051,63.352 67.163,63.405 67.301,63.405C67.439,63.405 67.551,63.352 67.551,63.286L67.551,59.483C67.551,59.417 67.439,59.364 67.301,59.364C67.163,59.364 67.051,59.417 67.051,59.483Z" vector-effect="non-scaling-stroke"/>
                    </g>
                    <g transform="matrix(1,0,0,1.31471,-13.5019,20.6818)">
                        <path style="fill:rgb(20,46,123);" d="M67.051,59.483L67.051,63.286C67.051,63.391 67.163,63.476 67.301,63.476C67.439,63.476 67.551,63.391 67.551,63.286L67.551,59.483C67.551,59.378 67.439,59.293 67.301,59.293C67.163,59.293 67.051,59.378 67.051,59.483Z" vector-effect="non-scaling-stroke"/>
                    </g>
                </g>
                <g transform="matrix(0.965926,0.258819,-0.258819,0.965926,44.8145,-10.5037)">
                    <g transform="matrix(1,0,0,2.10353,-13.5019,-28.2397)">
                        <path style="fill:rgb(20,46,123);fill-opacity:0.39;" d="M67.051,59.483L67.051,63.286C67.051,63.352 67.163,63.405 67.301,63.405C67.439,63.405 67.551,63.352 67.551,63.286L67.551,59.483C67.551,59.417 67.439,59.364 67.301,59.364C67.163,59.364 67.051,59.417 67.051,59.483Z" vector-effect="non-scaling-stroke"/>
                    </g>
                    <g transform="matrix(1,0,0,1.31471,-13.5019,20.6818)">
                        <path style="fill:rgb(20,46,123);" d="M67.051,59.483L67.051,63.286C67.051,63.391 67.163,63.476 67.301,63.476C67.439,63.476 67.551,63.391 67.551,63.286L67.551,59.483C67.551,59.378 67.439,59.293 67.301,59.293C67.163,59.293 67.051,59.378 67.051,59.483Z" vector-effect="non-scaling-stroke"/>
                    </g>
                </g>
                <g transform="matrix(0.965926,0.258819,-0.258819,0.965926,49.8145,-10.5037)">
                    <g transform="matrix(1,0,0,2.10353,-13.5019,-28.2397)">
                        <path style="fill:rgb(20,46,123);fill-opacity:0.39;" d="M67.051,59.483L67.051,63.286C67.051,63.352 67.163,63.405 67.301,63.405C67.439,63.405 67.551,63.352 67.551,63.286L67.551,59.483C67.551,59.417 67.439,59.364 67.301,59.364C67.163,59.364 67.051,59.417 67.051,59.483Z" vector-effect="non-scaling-stroke"/>
                    </g>
                    <g transform="matrix(1,0,0,1.31471,-13.5019,20.6818)">
                        <path style="fill:rgb(20,46,123);" d="M67.051,59.483L67.051,63.286C67.051,63.391 67.163,63.476 67.301,63.476C67.439,63.476 67.551,63.391 67.551,63.286L67.551,59.483C67.551,59.378 67.439,59.293 67.301,59.293C67.163,59.293 67.051,59.378 67.051,59.483Z" vector-effect="non-scaling-stroke"/>
                    </g>
                </g>
                <g transform="matrix(0.965926,0.258819,-0.258819,0.965926,54.8145,-10.5037)">
                    <g transform="matrix(1,0,0,2.10353,-13.5019,-28.2397)">
                        <path style="fill:rgb(20,46,123);fill-opacity:0.39;" d="M67.051,59.483L67.051,63.286C67.051,63.352 67.163,63.405 67.301,63.405C67.439,63.405 67.551,63.352 67.551,63.286L67.551,59.483C67.551,59.417 67.439,59.364 67.301,59.364C67.163,59.364 67.051,59.417 67.051,59.483Z" vector-effect="non-scaling-stroke"/>
                    </g>
                    <g transform="matrix(1,0,0,1.31471,-13.5019,20.6818)">
                        <path style="fill:rgb(20,46,123);" d="M67.051,59.483L67.051,63.286C67.051,63.391 67.163,63.476 67.301,63.476C67.439,63.476 67.551,63.391 67.551,63.286L67.551,59.483C67.551,59.378 67.439,59.293 67.301,59.293C67.163,59.293 67.051,59.378 67.051,59.483Z" vector-effect="non-scaling-stroke"/>
                    </g>
                </g>
                <g transform="matrix(0.965926,0.258819,-0.258819,0.965926,59.8145,-10.5037)">
                    <g transform="matrix(1,0,0,2.10353,-13.5019,-28.2397)">
                        <path style="fill:rgb(20,46,123);fill-opacity:0.39;" d="M67.051,59.483L67.051,63.286C67.051,63.352 67.163,63.405 67.301,63.405C67.439,63.405 67.551,63.352 67.551,63.286L67.551,59.483C67.551,59.417 67.439,59.364 67.301,59.364C67.163,59.364 67.051,59.417 67.051,59.483Z" vector-effect="non-scaling-stroke"/>
                    </g>
                    <g transform="matrix(1,0,0,1.31471,-13.5019,20.6818)">
                        <path style="fill:rgb(20,46,123);" d="M67.051,59.483L67.051,63.286C67.051,63.391 67.163,63.476 67.301,63.476C67.439,63.476 67.551,63.391 67.551,63.286L67.551,59.483C67.551,59.378 67.439,59.293 67.301,59.293C67.163,59.293 67.051,59.378 67.051,59.483Z" vector-effect="non-scaling-stroke"/>
                    </g>
                </g>
                <g transform="matrix(0.965926,0.258819,-0.258819,0.965926,64.8145,-10.5037)">
                    <g transform="matrix(1,0,0,2.10353,-13.5019,-28.2397)">
                        <path style="fill:rgb(20,46,123);fill-opacity:0.39;" d="M67.051,59.483L67.051,63.286C67.051,63.352 67.163,63.405 67.301,63.405C67.439,63.405 67.551,63.352 67.551,63.286L67.551,59.483C67.551,59.417 67.439,59.364 67.301,59.364C67.163,59.364 67.051,59.417 67.051,59.483Z" vector-effect="non-scaling-stroke"/>
                    </g>
                    <g transform="matrix(1,0,0,1.31471,-13.5019,20.6818)">
                        <path style="fill:rgb(20,46,123);" d="M67.051,59.483L67.051,63.286C67.051,63.391 67.163,63.476 67.301,63.476C67.439,63.476 67.551,63.391 67.551,63.286L67.551,59.483C67.551,59.378 67.439,59.293 67.301,59.293C67.163,59.293 67.051,59.378 67.051,59.483Z" vector-effect="non-scaling-stroke"/>
                    </g>
                </g>
                <g transform="matrix(0.965926,0.258819,-0.258819,0.965926,69.8145,-10.5037)">
                    <g transform="matrix(1,0,0,2.10353,-13.5019,-28.2397)">
                        <path style="fill:rgb(20,46,123);fill-opacity:0.39;" d="M67.051,59.483L67.051,63.286C67.051,63.352 67.163,63.405 67.301,63.405C67.439,63.405 67.551,63.352 67.551,63.286L67.551,59.483C67.551,59.417 67.439,59.364 67.301,59.364C67.163,59.364 67.051,59.417 67.051,59.483Z" vector-effect="non-scaling-stroke"/>
                    </g>
                    <g transform="matrix(1,0,0,1.31471,-13.5019,20.6818)">
                        <path style="fill:rgb(20,46,123);" d="M67.051,59.483L67.051,63.286C67.051,63.391 67.163,63.476 67.301,63.476C67.439,63.476 67.551,63.391 67.551,63.286L67.551,59.483C67.551,59.378 67.439,59.293 67.301,59.293C67.163,59.293 67.051,59.378 67.051,59.483Z" vector-effect="non-scaling-stroke"/>
                    </g>
                </g>
                <g transform="matrix(0.965926,0.258819,-0.258819,0.965926,74.8145,-10.5037)">
                    <g transform="matrix(1,0,0,2.10353,-13.5019,-28.2397)">
                        <path style="fill:rgb(20,46,123);fill-opacity:0.39;" d="M67.051,59.483L67.051,63.286C67.051,63.352 67.163,63.405 67.301,63.405C67.439,63.405 67.551,63.352 67.551,63.286L67.551,59.483C67.551,59.417 67.439,59.364 67.301,59.364C67.163,59.364 67.051,59.417 67.051,59.483Z" vector-effect="non-scaling-stroke"/>
                    </g>
                    <g transform="matrix(1,0,0,1.31471,-13.5019,20.6818)">
                        <path style="fill:rgb(20,46,123);" d="M67.051,59.483L67.051,63.286C67.051,63.391 67.163,63.476 67.301,63.476C67.439,63.476 67.551,63.391 67.551,63.286L67.551,59.483C67.551,59.378 67.439,59.293 67.301,59.293C67.163,59.293 67.051,59.378 67.051,59.483Z" vector-effect="non-scaling-stroke"/>
                    </g>
                </g>
                <g transform="matrix(0.965926,0.258819,-0.258819,0.965926,79.8145,-10.5037)">
                    <g transform="matrix(1,0,0,2.10353,-13.5019,-28.2397)">
                        <path style="fill:rgb(20,46,123);fill-opacity:0.39;" d="M67.051,59.483L67.051,63.286C67.051,63.352 67.163,63.405 67.301,63.405C67.439,63.405 67.551,63.352 67.551,63.286L67.551,59.483C67.551,59.417 67.439,59.364 67.301,59.364C67.163,59.364 67.051,59.417 67.051,59.483Z" vector-effect="non-scaling-stroke"/>
                    </g>
                    <g transform="matrix(1,0,0,1.31471,-13.5019,20.6818)">
                        <path style="fill:rgb(20,46,123);" d="M67.051,59.483L67.051,63.286C67.051,63.391 67.163,63.476 67.301,63.476C67.439,63.476 67.551,63.391 67.551,63.286L67.551,59.483C67.551,59.378 67.439,59.293 67.301,59.293C67.163,59.293 67.051,59.378 67.051,59.483Z" vector-effect="non-scaling-stroke"/>
                    </g>
                </g>
                <g transform="matrix(0.965926,0.258819,-0.258819,0.965926,84.8145,-10.5037)">
                    <g transform="matrix(1,0,0,2.10353,-13.5019,-28.2397)">
                        <path style="fill:rgb(20,46,123);fill-opacity:0.39;" d="M67.051,59.483L67.051,63.286C67.051,63.352 67.163,63.405 67.301,63.405C67.439,63.405 67.551,63.352 67.551,63.286L67.551,59.483C67.551,59.417 67.439,59.364 67.301,59.364C67.163,59.364 67.051,59.417 67.051,59.483Z" vector-effect="non-scaling-stroke"/>
                    </g>
                    <g transform="matrix(1,0,0,1.31471,-13.5019,20.6818)">
                        <path style="fill:rgb(20,46,123);" d="M67.051,59.483L67.051,63.286C67.051,63.391 67.163,63.476 67.301,63.476C67.439,63.476 67.551,63.391 67.551,63.286L67.551,59.483C67.551,59.378 67.439,59.293 67.301,59.293C67.163,59.293 67.051,59.378 67.051,59.483Z" vector-effect="non-scaling-stroke"/>
                    </g>
                </g>
                <g transform="matrix(0.965926,0.258819,-0.258819,0.965926,89.8145,-10.5037)">
                    <g transform="matrix(1,0,0,2.10353,-13.5019,-28.2397)">
                        <path style="fill:rgb(20,46,123);fill-opacity:0.39;" d="M67.051,59.483L67.051,63.286C67.051,63.352 67.163,63.405 67.301,63.405C67.439,63.405 67.551,63.352 67.551,63.286L67.551,59.483C67.551,59.417 67.439,59.364 67.301,59.364C67.163,59.364 67.051,59.417 67.051,59.483Z" vector-effect="non-scaling-stroke"/>
                    </g>
                    <g transform="matrix(1,0,0,1.31471,-13.5019,20.6818)">
                        <path style="fill:rgb(20,46,123);" d="M67.051,59.483L67.051,63.286C67.051,63.391 67.163,63.476 67.301,63.476C67.439,63.476 67.551,63.391 67.551,63.286L67.551,59.483C67.551,59.378 67.439,59.293 67.301,59.293C67.163,59.293 67.051,59.378 67.051,59.483Z" vector-effect="non-scaling-stroke"/>
                    </g>
                </g>
                <g transform="matrix(0.965926,0.258819,-0.258819,0.965926,94.8145,-10.5037)">
                    <g transform="matrix(1,0,0,2.10353,-13.5019,-28.2397)">
                        <path style="fill:rgb(20,46,123);fill-opacity:0.39;" d="M67.051,59.483L67.051,63.286C67.051,63.352 67.163,63.405 67.301,63.405C67.439,63.405 67.551,63.352 67.551,63.286L67.551,59.483C67.551,59.417 67.439,59.364 67.301,59.364C67.163,59.364 67.051,59.417 67.051,59.483Z" vector-effect="non-scaling-stroke"/>
                    </g>
                    <g transform="matrix(1,0,0,1.31471,-13.5019,20.6818)">
                        <path style="fill:rgb(20,46,123);" d="M67.051,59.483L67.051,63.286C67.051,63.391 67.163,63.476 67.301,63.476C67.439,63.476 67.551,63.391 67.551,63.286L67.551,59.483C67.551,59.378 67.439,59.293 67.301,59.293C67.163,59.293 67.051,59.378 67.051,59.483Z" vector-effect="non-scaling-stroke"/>
                    </g>
                </g>
                <g transform="matrix(0.965926,0.258819,-0.258819,0.965926,99.8145,-10.5037)">
                    <g transform="matrix(1,0,0,2.10353,-13.5019,-28.2397)">
                        <path style="fill:rgb(20,46,123);fill-opacity:0.39;" d="M67.051,59.483L67.051,63.286C67.051,63.352 67.163,63.405 67.301,63.405C67.439,63.405 67.551,63.352 67.551,63.286L67.551,59.483C67.551,59.417 67.439,59.364 67.301,59.364C67.163,59.364 67.051,59.417 67.051,59.483Z" vector-effect="non-scaling-stroke"/>
                    </g>
                    <g transform="matrix(1,0,0,1.31471,-13.5019,20.6818)">
                        <path style="fill:rgb(20,46,123);" d="M67.051,59.483L67.051,63.286C67.051,63.391 67.163,63.476 67.301,63.476C67.439,63.476 67.551,63.391 67.551,63.286L67.551,59.483C67.551,59.378 67.439,59.293 67.301,59.293C67.163,59.293 67.051,59.378 67.051,59.483Z" vector-effect="non-scaling-stroke"/>
                    </g>
                </g>
                <g transform="matrix(0.965926,0.258819,-0.258819,0.965926,104.815,-10.5037)">
                    <g transform="matrix(1,0,0,2.10353,-13.5019,-28.2397)">
                        <path style="fill:rgb(20,46,123);fill-opacity:0.39;" d="M67.051,59.483L67.051,63.286C67.051,63.352 67.163,63.405 67.301,63.405C67.439,63.405 67.551,63.352 67.551,63.286L67.551,59.483C67.551,59.417 67.439,59.364 67.301,59.364C67.163,59.364 67.051,59.417 67.051,59.483Z" vector-effect="non-scaling-stroke"/>
                    </g>
                    <g transform="matrix(1,0,0,1.31471,-13.5019,20.6818)">
                        <path style="fill:rgb(20,46,123);" d="M67.051,59.483L67.051,63.286C67.051,63.391 67.163,63.476 67.301,63.476C67.439,63.476 67.551,63.391 67.551,63.286L67.551,59.483C67.551,59.378 67.439,59.293 67.301,59.293C67.163,59.293 67.051,59.378 67.051,59.483Z" vector-effect="non-scaling-stroke"/>
                    </g>
                </g>
                <g transform="matrix(0.965926,0.258819,-0.258819,0.965926,109.815,-10.5037)">
                    <g transform="matrix(1,0,0,2.10353,-13.5019,-28.2397)">
                        <path style="fill:rgb(20,46,123);fill-opacity:0.39;" d="M67.051,59.483L67.051,63.286C67.051,63.352 67.163,63.405 67.301,63.405C67.439,63.405 67.551,63.352 67.551,63.286L67.551,59.483C67.551,59.417 67.439,59.364 67.301,59.364C67.163,59.364 67.051,59.417 67.051,59.483Z" vector-effect="non-scaling-stroke"/>
                    </g>
                    <g transform="matrix(1,0,0,1.31471,-13.5019,20.6818)">
                        <path style="fill:rgb(20,46,123);" d="M67.051,59.483L67.051,63.286C67.051,63.391 67.163,63.476 67.301,63.476C67.439,63.476 67.551,63.391 67.551,63.286L67.551,59.483C67.551,59.378 67.439,59.293 67.301,59.293C67.163,59.293 67.051,59.378 67.051,59.483Z" vector-effect="non-scaling-stroke"/>
                    </g>
                </g>
                <g transform="matrix(0.965926,0.258819,-0.258819,0.965926,114.815,-10.5037)">
                    <g transform="matrix(1,0,0,2.10353,-13.5019,-28.2397)">
                        <path style="fill:rgb(20,46,123);fill-opacity:0.39;" d="M67.051,59.483L67.051,63.286C67.051,63.352 67.163,63.405 67.301,63.405C67.439,63.405 67.551,63.352 67.551,63.286L67.551,59.483C67.551,59.417 67.439,59.364 67.301,59.364C67.163,59.364 67.051,59.417 67.051,59.483Z" vector-effect="non-scaling-stroke"/>
                    </g>
                    <g transform="matrix(1,0,0,1.31471,-13.5019,20.6818)">
                        <path style="fill:rgb(20,46,123);" d="M67.051,59.483L67.051,63.286C67.051,63.391 67.163,63.476 67.301,63.476C67.439,63.476 67.551,63.391 67.551,63.286L67.551,59.483C67.551,59.378 67.439,59.293 67.301,59.293C67.163,59.293 67.051,59.378 67.051,59.483Z" vector-effect="non-scaling-stroke"/>
                    </g>
                </g>
                <g transform="matrix(0.965926,0.258819,-0.258819,0.965926,119.815,-10.5037)">
                    <g transform="matrix(1,0,0,2.10353,-13.5019,-28.2397)">
                        <path style="fill:rgb(20,46,123);fill-opacity:0.39;" d="M67.051,59.483L67.051,63.286C67.051,63.352 67.163,63.405 67.301,63.405C67.439,63.405 67.551,63.352 67.551,63.286L67.551,59.483C67.551,59.417 67.439,59.364 67.301,59.364C67.163,59.364 67.051,59.417 67.051,59.483Z" vector-effect="non-scaling-stroke"/>
                    </g>
                    <g transform="matrix(1,0,0,1.31471,-13.5019,20.6818)">
                        <path style="fill:rgb(20,46,123);" d="M67.051,59.483L67.051,63.286C67.051,63.391 67.163,63.476 67.301,63.476C67.439,63.476 67.551,63.391 67.551,63.286L67.551,59.483C67.551,59.378 67.439,59.293 67.301,59.293C67.163,59.293 67.051,59.378 67.051,59.483Z" vector-effect="non-scaling-stroke"/>
                    </g>
                </g>
                <g transform="matrix(0.965926,0.258819,-0.258819,0.965926,124.815,-10.5037)">
                    <g transform="matrix(1,0,0,2.10353,-13.5019,-28.2397)">
                        <path style="fill:rgb(20,46,123);fill-opacity:0.39;" d="M67.051,59.483L67.051,63.286C67.051,63.352 67.163,63.405 67.301,63.405C67.439,63.405 67.551,63.352 67.551,63.286L67.551,59.483C67.551,59.417 67.439,59.364 67.301,59.364C67.163,59.364 67.051,59.417 67.051,59.483Z" vector-effect="non-scaling-stroke"/>
                    </g>
                    <g transform="matrix(1,0,0,1.31471,-13.5019,20.6818)">
                        <path style="fill:rgb(20,46,123);" d="M67.051,59.483L67.051,63.286C67.051,63.391 67.163,63.476 67.301,63.476C67.439,63.476 67.551,63.391 67.551,63.286L67.551,59.483C67.551,59.378 67.439,59.293 67.301,59.293C67.163,59.293 67.051,59.378 67.051,59.483Z" vector-effect="non-scaling-stroke"/>
                    </g>
                </g>
                <g transform="matrix(0.965926,0.258819,-0.258819,0.965926,129.815,-10.5037)">
                    <g transform="matrix(1,0,0,2.10353,-13.5019,-28.2397)">
                        <path style="fill:rgb(20,46,123);fill-opacity:0.39;" d="M67.051,59.483L67.051,63.286C67.051,63.352 67.163,63.405 67.301,63.405C67.439,63.405 67.551,63.352 67.551,63.286L67.551,59.483C67.551,59.417 67.439,59.364 67.301,59.364C67.163,59.364 67.051,59.417 67.051,59.483Z" vector-effect="non-scaling-stroke"/>
                    </g>
                    <g transform="matrix(1,0,0,1.31471,-13.5019,20.6818)">
                        <path style="fill:rgb(20,46,123);" d="M67.051,59.483L67.051,63.286C67.051,63.391 67.163,63.476 67.301,63.476C67.439,63.476 67.551,63.391 67.551,63.286L67.551,59.483C67.551,59.378 67.439,59.293 67.301,59.293C67.163,59.293 67.051,59.378 67.051,59.483Z" vector-effect="non-scaling-stroke"/>
                    </g>
                </g>
                <g transform="matrix(0.965926,0.258819,-0.258819,0.965926,134.815,-10.5037)">
                    <g transform="matrix(1,0,0,2.10353,-13.5019,-28.2397)">
                        <path style="fill:rgb(20,46,123);fill-opacity:0.39;" d="M67.051,59.483L67.051,63.286C67.051,63.352 67.163,63.405 67.301,63.405C67.439,63.405 67.551,63.352 67.551,63.286L67.551,59.483C67.551,59.417 67.439,59.364 67.301,59.364C67.163,59.364 67.051,59.417 67.051,59.483Z" vector-effect="non-scaling-stroke"/>
                    </g>
                    <g transform="matrix(1,0,0,1.31471,-13.5019,20.6818)">
                        <path style="fill:rgb(20,46,123);" d="M67.051,59.483L67.051,63.286C67.051,63.391 67.163,63.476 67.301,63.476C67.439,63.476 67.551,63.391 67.551,63.286L67.551,59.483C67.551,59.378 67.439,59.293 67.301,59.293C67.163,59.293 67.051,59.378 67.051,59.483Z" vector-effect="non-scaling-stroke"/>
                    </g>
                </g>
                <g transform="matrix(0.965926,0.258819,-0.258819,0.965926,139.815,-10.5037)">
                    <g transform="matrix(1,0,0,2.10353,-13.5019,-28.2397)">
                        <path style="fill:rgb(20,46,123);fill-opacity:0.39;" d="M67.051,59.483L67.051,63.286C67.051,63.352 67.163,63.405 67.301,63.405C67.439,63.405 67.551,63.352 67.551,63.286L67.551,59.483C67.551,59.417 67.439,59.364 67.301,59.364C67.163,59.364 67.051,59.417 67.051,59.483Z" vector-effect="non-scaling-stroke"/>
                    </g>
                    <g transform="matrix(1,0,0,1.31471,-13.5019,20.6818)">
                        <path style="fill:rgb(20,46,123);" d="M67.051,59.483L67.051,63.286C67.051,63.391 67.163,63.476 67.301,63.476C67.439,63.476 67.551,63.391 67.551,63.286L67.551,59.483C67.551,59.378 67.439,59.293 67.301,59.293C67.163,59.293 67.051,59.378 67.051,59.483Z" vector-effect="non-scaling-stroke"/>
                    </g>
                </g>
                <g transform="matrix(0.965926,0.258819,-0.258819,0.965926,144.815,-10.5037)">
                    <g transform="matrix(1,0,0,2.10353,-13.5019,-28.2397)">
                        <path style="fill:rgb(20,46,123);fill-opacity:0.39;" d="M67.051,59.483L67.051,63.286C67.051,63.352 67.163,63.405 67.301,63.405C67.439,63.405 67.551,63.352 67.551,63.286L67.551,59.483C67.551,59.417 67.439,59.364 67.301,59.364C67.163,59.364 67.051,59.417 67.051,59.483Z" vector-effect="non-scaling-stroke"/>
                    </g>
                    <g transform="matrix(1,0,0,1.31471,-13.5019,20.6818)">
                        <path style="fill:rgb(20,46,123);" d="M67.051,59.483L67.051,63.286C67.051,63.391 67.163,63.476 67.301,63.476C67.439,63.476 67.551,63.391 67.551,63.286L67.551,59.483C67.551,59.378 67.439,59.293 67.301,59.293C67.163,59.293 67.051,59.378 67.051,59.483Z" vector-effect="non-scaling-stroke"/>
                    </g>
                </g>
                <g transform="matrix(0.965926,0.258819,-0.258819,0.965926,149.815,-10.5037)">
                    <g transform="matrix(1,0,0,2.10353,-13.5019,-28.2397)">
                        <path style="fill:rgb(20,46,123);fill-opacity:0.39;" d="M67.051,59.483L67.051,63.286C67.051,63.352 67.163,63.405 67.301,63.405C67.439,63.405 67.551,63.352 67.551,63.286L67.551,59.483C67.551,59.417 67.439,59.364 67.301,59.364C67.163,59.364 67.051,59.417 67.051,59.483Z" vector-effect="non-scaling-stroke"/>
                    </g>
                    <g transform="matrix(1,0,0,1.31471,-13.5019,20.6818)">
                        <path style="fill:rgb(20,46,123);" d="M67.051,59.483L67.051,63.286C67.051,63.391 67.163,63.476 67.301,63.476C67.439,63.476 67.551,63.391 67.551,63.286L67.551,59.483C67.551,59.378 67.439,59.293 67.301,59.293C67.163,59.293 67.051,59.378 67.051,59.483Z" vector-effect="non-scaling-stroke"/>
                    </g>
                </g>
                <g transform="matrix(0.965926,0.258819,-0.258819,0.965926,154.815,-10.5037)">
                    <g transform="matrix(1,0,0,2.10353,-13.5019,-28.2397)">
                        <path style="fill:rgb(20,46,123);fill-opacity:0.39;" d="M67.051,59.483L67.051,63.286C67.051,63.352 67.163,63.405 67.301,63.405C67.439,63.405 67.551,63.352 67.551,63.286L67.551,59.483C67.551,59.417 67.439,59.364 67.301,59.364C67.163,59.364 67.051,59.417 67.051,59.483Z" vector-effect="non-scaling-stroke"/>
                    </g>
                    <g transform="matrix(1,0,0,1.31471,-13.5019,20.6818)">
                        <path style="fill:rgb(20,46,123);" d="M67.051,59.483L67.051,63.286C67.051,63.391 67.163,63.476 67.301,63.476C67.439,63.476 67.551,63.391 67.551,63.286L67.551,59.483C67.551,59.378 67.439,59.293 67.301,59.293C67.163,59.293 67.051,59.378 67.051,59.483Z" vector-effect="non-scaling-stroke"/>
                    </g>
                </g>
                <g transform="matrix(0.965926,0.258819,-0.258819,0.965926,159.815,-10.5037)">
                    <g transform="matrix(1,0,0,2.10353,-13.5019,-28.2397)">
                        <path style="fill:rgb(20,46,123);fill-opacity:0.39;" d="M67.051,59.483L67.051,63.286C67.051,63.352 67.163,63.405 67.301,63.405C67.439,63.405 67.551,63.352 67.551,63.286L67.551,59.483C67.551,59.417 67.439,59.364 67.301,59.364C67.163,59.364 67.051,59.417 67.051,59.483Z" vector-effect="non-scaling-stroke"/>
                    </g>
                    <g transform="matrix(1,0,0,1.31471,-13.5019,20.6818)">
                        <path style="fill:rgb(20,46,123);" d="M67.051,59.483L67.051,63.286C67.051,63.391 67.163,63.476 67.301,63.476C67.439,63.476 67.551,63.391 67.551,63.286L67.551,59.483C67.551,59.378 67.439,59.293 67.301,59.293C67.163,59.293 67.051,59.378 67.051,59.483Z" vector-effect="non-scaling-stroke"/>
                    </g>
                </g>
                <g transform="matrix(0.965926,0.258819,-0.258819,0.965926,164.815,-10.5037)">
                    <g transform="matrix(1,0,0,2.10353,-13.5019,-28.2397)">
                        <path style="fill:rgb(20,46,123);fill-opacity:0.39;" d="M67.051,59.483L67.051,63.286C67.051,63.352 67.163,63.405 67.301,63.405C67.439,63.405 67.551,63.352 67.551,63.286L67.551,59.483C67.551,59.417 67.439,59.364 67.301,59.364C67.163,59.364 67.051,59.417 67.051,59.483Z" vector-effect="non-scaling-stroke"/>
                    </g>
                    <g transform="matrix(1,0,0,1.31471,-13.5019,20.6818)">
                        <path style="fill:rgb(20,46,123);" d="M67.051,59.483L67.051,63.286C67.051,63.391 67.163,63.476 67.301,63.476C67.439,63.476 67.551,63.391 67.551,63.286L67.551,59.483C67.551,59.378 67.439,59.293 67.301,59.293C67.163,59.293 67.051,59.378 67.051,59.483Z" vector-effect="non-scaling-stroke"/>
                    </g>
                </g>
            </g>
        </g>
        <g id="plant">
            <g id="plant1">
                <path style="fill:none;stroke:rgb(239,183,27);stroke-width:1px;" d="M245.483,171.869L245.483,112.016" vector-effect="non-scaling-stroke"/>
                <g transform="matrix(0.585346,-1.06389,0.973493,0.535611,51.3907,363.239)" id="feuille">
                    <g transform="matrix(1.09422,0,0,0.982386,-22.8058,-87.7297)">
                        <path style="fill:rgb(239,183,27);" d="M224.378,118.408C224.407,118.424 224.442,118.449 224.481,118.489C224.522,118.531 224.604,118.636 224.715,118.806C225.831,120.511 230.988,129.916 230.988,139.146C230.988,145.334 229.919,150.084 228.3,152.898C227.158,154.881 225.737,155.926 224.214,155.926C222.692,155.926 221.27,154.881 220.129,152.898C218.509,150.084 217.441,145.334 217.441,139.146C217.441,129.92 222.63,120.553 223.72,118.824C223.835,118.642 223.927,118.526 223.979,118.47L223.975,118.47C223.986,118.459 223.997,118.449 224.009,118.439L224.021,118.429L224.033,118.421C224.056,118.404 224.082,118.389 224.111,118.379C224.222,118.335 224.312,118.364 224.378,118.408ZM224.221,119.536C222.984,121.561 218.193,130.415 218.193,139.146C218.193,145.093 219.189,149.668 220.745,152.372C221.721,154.068 222.912,155.01 224.214,155.01C225.516,155.01 226.707,154.068 227.683,152.372C229.24,149.668 230.235,145.093 230.235,139.146C230.235,131.165 226.259,123.054 224.614,120.185C224.474,119.939 224.333,119.711 224.221,119.536Z" vector-effect="non-scaling-stroke"/>
                    </g>
                    <g transform="matrix(0.933333,0,0,3.73437,14.8667,-177.734)">
                        <path style="fill:rgb(251,237,204);" d="M222.721,65L222.721,56.967C222.721,56.933 222.622,56.906 222.5,56.906C222.378,56.906 222.279,56.933 222.279,56.967L222.279,65C222.279,65.033 222.378,65.06 222.5,65.06C222.622,65.06 222.721,65.033 222.721,65Z" vector-effect="non-scaling-stroke"/>
                    </g>
                    <g transform="matrix(0.933333,0,0,2.48958,14.8667,-96.8226)">
                        <path style="fill:rgb(244,209,122);" d="M222.721,65L222.721,56.967C222.721,56.917 222.622,56.876 222.5,56.876C222.378,56.876 222.279,56.917 222.279,56.967L222.279,65C222.279,65.05 222.378,65.09 222.5,65.09C222.622,65.09 222.721,65.05 222.721,65Z" vector-effect="non-scaling-stroke"/>
                    </g>
                    <g transform="matrix(0.933333,0,0,1,14.8667,0)">
                        <path style="fill:rgb(239,183,27);" d="M222.721,65L222.721,56.967C222.721,56.842 222.622,56.742 222.5,56.742C222.378,56.742 222.279,56.842 222.279,56.967L222.279,65C222.279,65.124 222.378,65.225 222.5,65.225C222.622,65.225 222.721,65.124 222.721,65Z" vector-effect="non-scaling-stroke"/>
                    </g>
                </g>
                <g transform="matrix(0.535714,0.927884,-0.866025,0.5,182.894,-80.3141)" id="feuille1">
                    <g transform="matrix(1.09422,0,0,0.982386,-22.8058,-87.7297)">
                        <path style="fill:rgb(239,183,27);" d="M224.41,118.368C224.441,118.386 224.477,118.413 224.517,118.453C224.559,118.496 224.643,118.604 224.757,118.779C225.875,120.485 231.038,129.904 231.038,139.146C231.038,145.345 229.966,150.104 228.343,152.923C227.19,154.926 225.752,155.977 224.214,155.977C222.677,155.977 221.238,154.926 220.086,152.923C218.463,150.104 217.391,145.345 217.391,139.146C217.391,129.907 222.586,120.529 223.678,118.797C223.794,118.612 223.889,118.494 223.945,118.433L223.94,118.433C223.954,118.42 223.968,118.407 223.983,118.395L223.992,118.387L223.997,118.384C224.027,118.362 224.06,118.342 224.097,118.329C224.228,118.278 224.334,118.316 224.41,118.368ZM224.225,119.626C222.931,121.765 218.243,130.516 218.243,139.146C218.243,145.081 219.235,149.648 220.789,152.347C221.753,154.023 222.927,154.959 224.214,154.959C225.501,154.959 226.675,154.023 227.64,152.347C229.194,149.648 230.185,145.081 230.185,139.146C230.185,130.527 225.543,121.755 224.225,119.626Z" vector-effect="non-scaling-stroke"/>
                    </g>
                    <g transform="matrix(0.933333,0,0,3.73437,14.8667,-177.734)">
                        <path style="fill:rgb(251,237,204);" d="M222.75,65L222.75,56.967C222.75,56.93 222.638,56.9 222.5,56.9C222.362,56.9 222.25,56.93 222.25,56.967L222.25,65C222.25,65.037 222.362,65.067 222.5,65.067C222.638,65.067 222.75,65.037 222.75,65Z" vector-effect="non-scaling-stroke"/>
                    </g>
                    <g transform="matrix(0.933333,0,0,2.48958,14.8667,-96.8226)">
                        <path style="fill:rgb(244,209,122);" d="M222.75,65L222.75,56.967C222.75,56.911 222.638,56.866 222.5,56.866C222.362,56.866 222.25,56.911 222.25,56.967L222.25,65C222.25,65.055 222.362,65.1 222.5,65.1C222.638,65.1 222.75,65.055 222.75,65Z" vector-effect="non-scaling-stroke"/>
                    </g>
                    <g transform="matrix(0.933333,0,0,1,14.8667,0)">
                        <path style="fill:rgb(239,183,27);" d="M222.75,65L222.75,56.967C222.75,56.829 222.638,56.717 222.5,56.717C222.362,56.717 222.25,56.829 222.25,56.967L222.25,65C222.25,65.138 222.362,65.25 222.5,65.25C222.638,65.25 222.75,65.138 222.75,65Z" vector-effect="non-scaling-stroke"/>
                    </g>
                </g>
                <g transform="matrix(0.464286,-0.804166,0.721688,0.416667,94.7712,285.871)" id="feuille2">
                    <g transform="matrix(1.09422,0,0,0.982386,-22.8058,-87.7297)">
                        <path style="fill:rgb(239,183,27);" d="M224.438,118.276C224.471,118.296 224.51,118.325 224.552,118.368C224.596,118.413 224.684,118.525 224.803,118.707C225.924,120.419 231.104,129.872 231.104,139.146C231.104,145.376 230.023,150.157 228.392,152.99C227.225,155.017 225.77,156.079 224.214,156.079C222.658,156.079 221.203,155.017 220.037,152.99C218.406,150.157 217.325,145.376 217.325,139.146C217.325,129.876 222.535,120.464 223.631,118.726C223.752,118.535 223.851,118.412 223.911,118.348L223.906,118.348C223.922,118.331 223.94,118.315 223.959,118.3L223.966,118.295L223.968,118.293C224.002,118.267 224.041,118.245 224.084,118.23C224.232,118.171 224.352,118.216 224.438,118.276ZM224.226,119.773C222.874,122.03 218.309,130.646 218.309,139.146C218.309,145.051 219.292,149.595 220.838,152.28C221.789,153.932 222.946,154.857 224.214,154.857C225.483,154.857 226.64,153.932 227.591,152.28C229.137,149.595 230.119,145.051 230.119,139.146C230.119,130.657 225.599,122.02 224.226,119.773Z" vector-effect="non-scaling-stroke"/>
                    </g>
                    <g transform="matrix(0.933333,0,0,3.73437,14.8667,-177.734)">
                        <path style="fill:rgb(251,237,204);" d="M222.788,65L222.788,56.967C222.788,56.922 222.659,56.886 222.5,56.886C222.341,56.886 222.212,56.922 222.212,56.967L222.212,65C222.212,65.044 222.341,65.08 222.5,65.08C222.659,65.08 222.788,65.044 222.788,65Z" vector-effect="non-scaling-stroke"/>
                    </g>
                    <g transform="matrix(0.933333,0,0,2.48958,14.8667,-96.8226)">
                        <path style="fill:rgb(244,209,122);fill-opacity:0.65;" d="M222.788,65L222.788,56.967C222.788,56.9 222.659,56.846 222.5,56.846C222.341,56.846 222.212,56.9 222.212,56.967L222.212,65C222.212,65.067 222.341,65.121 222.5,65.121C222.659,65.121 222.788,65.067 222.788,65Z" vector-effect="non-scaling-stroke"/>
                    </g>
                    <g transform="matrix(0.933333,0,0,1,14.8667,0)">
                        <path style="fill:rgb(239,183,27);" d="M222.788,65L222.788,56.967C222.788,56.801 222.659,56.667 222.5,56.667C222.341,56.667 222.212,56.801 222.212,56.967L222.212,65C222.212,65.166 222.341,65.3 222.5,65.3C222.659,65.3 222.788,65.166 222.788,65Z" vector-effect="non-scaling-stroke"/>
                    </g>
                </g>
                <g transform="matrix(0.392857,0.680449,-0.625463,0.361111,199.231,-41.8947)" id="feuille3">
                    <g transform="matrix(1.09422,0,0,0.982386,-22.8058,-87.7297)">
                        <path style="fill:rgb(239,183,27);" d="M224.571,118.28C224.655,118.359 224.762,118.479 224.876,118.654C226.001,120.371 231.193,129.848 231.193,139.146C231.193,145.398 230.105,150.195 228.468,153.038C227.282,155.1 225.797,156.173 224.214,156.173C222.631,156.173 221.147,155.1 219.96,153.038C218.324,150.195 217.235,145.398 217.235,139.146C217.235,129.853 222.458,120.417 223.556,118.675C223.681,118.477 223.785,118.35 223.85,118.28L223.844,118.28C223.902,118.222 223.973,118.168 224.059,118.138C224.307,118.042 224.487,118.183 224.584,118.28L224.571,118.28ZM224.226,119.949C222.793,122.378 218.399,130.817 218.399,139.146C218.399,145.029 219.374,149.557 220.914,152.232C221.845,153.849 222.972,154.763 224.214,154.763C225.456,154.763 226.583,153.849 227.514,152.232C229.054,149.557 230.03,145.029 230.03,139.146C230.03,130.829 225.678,122.369 224.226,119.949Z" vector-effect="non-scaling-stroke"/>
                    </g>
                    <g transform="matrix(0.933333,0,0,3.73437,14.8667,-177.734)">
                        <path style="fill:rgb(251,237,204);" d="M222.841,65L222.841,56.967C222.841,56.915 222.688,56.874 222.5,56.874C222.312,56.874 222.159,56.915 222.159,56.967L222.159,65C222.159,65.051 222.312,65.093 222.5,65.093C222.688,65.093 222.841,65.051 222.841,65Z" vector-effect="non-scaling-stroke"/>
                    </g>
                    <g transform="matrix(0.933333,0,0,2.48958,14.8667,-96.8226)">
                        <path style="fill:rgb(244,209,122);" d="M222.841,65L222.841,56.967C222.841,56.89 222.688,56.827 222.5,56.827C222.312,56.827 222.159,56.89 222.159,56.967L222.159,65C222.159,65.077 222.312,65.139 222.5,65.139C222.688,65.139 222.841,65.077 222.841,65Z" vector-effect="non-scaling-stroke"/>
                    </g>
                    <g transform="matrix(0.933333,0,0,1,14.8667,0)">
                        <path style="fill:rgb(239,183,27);" d="M222.841,65L222.841,56.967C222.841,56.775 222.688,56.62 222.5,56.62C222.312,56.62 222.159,56.775 222.159,56.967L222.159,65C222.159,65.191 222.312,65.346 222.5,65.346C222.688,65.346 222.841,65.191 222.841,65Z" vector-effect="non-scaling-stroke"/>
                    </g>
                </g>
                <g transform="matrix(0.454569,-0.454569,0.392837,0.392837,118.309,186.622)" id="feuille4">
                    <g transform="matrix(1.09422,0,0,0.982386,-22.8058,-87.7297)">
                        <path style="fill:rgb(239,183,27);" d="M224.636,118.1C224.728,118.186 224.842,118.315 224.964,118.501C226.097,120.231 231.322,129.779 231.322,139.146C231.322,145.463 230.216,150.308 228.562,153.181C227.349,155.289 225.833,156.384 224.214,156.384C222.596,156.384 221.08,155.289 219.866,153.181C218.213,150.308 217.106,145.463 217.106,139.146C217.106,129.786 222.361,120.279 223.467,118.525C223.6,118.314 223.713,118.177 223.785,118.1L223.779,118.1C223.851,118.028 223.94,117.96 224.049,117.925C224.332,117.823 224.538,117.988 224.65,118.1L224.636,118.1ZM224.227,120.251C222.718,122.849 218.528,131.049 218.528,139.146C218.528,144.963 219.485,149.444 221.008,152.089C221.912,153.66 223.008,154.552 224.214,154.552C225.42,154.552 226.516,153.66 227.421,152.089C228.943,149.444 229.901,144.963 229.901,139.146C229.901,131.058 225.75,122.837 224.227,120.251Z" vector-effect="non-scaling-stroke"/>
                    </g>
                    <g transform="matrix(0.933333,0,0,3.73437,14.8667,-177.734)">
                        <path style="fill:rgb(251,237,204);" d="M222.917,65L222.917,56.967C222.917,56.9 222.73,56.846 222.5,56.846C222.27,56.846 222.083,56.9 222.083,56.967L222.083,65C222.083,65.067 222.27,65.121 222.5,65.121C222.73,65.121 222.917,65.067 222.917,65Z" vector-effect="non-scaling-stroke"/>
                    </g>
                    <g transform="matrix(0.933333,0,0,2.48958,14.8667,-96.8226)">
                        <path style="fill:rgb(244,209,122);" d="M222.917,65L222.917,56.967C222.917,56.867 222.73,56.786 222.5,56.786C222.27,56.786 222.083,56.867 222.083,56.967L222.083,65C222.083,65.1 222.27,65.181 222.5,65.181C222.73,65.181 222.917,65.1 222.917,65Z" vector-effect="non-scaling-stroke"/>
                    </g>
                    <g transform="matrix(0.933333,0,0,1,14.8667,0)">
                        <path style="fill:rgb(239,183,27);" d="M222.917,65L222.917,56.967C222.917,56.718 222.73,56.517 222.5,56.517C222.27,56.517 222.083,56.718 222.083,56.967L222.083,65C222.083,65.248 222.27,65.45 222.5,65.45C222.73,65.45 222.917,65.248 222.917,65Z" vector-effect="non-scaling-stroke"/>
                    </g>
                </g>
                <g transform="matrix(0.353553,0.353553,-0.333912,0.333912,189.027,11.6183)" id="feuille5">
                    <g transform="matrix(1.09422,0,0,0.982386,-22.8058,-87.7297)">
                        <path style="fill:rgb(239,183,27);" d="M223.632,118.001L223.623,118.001C223.722,117.903 223.843,117.812 223.991,117.767C224.374,117.631 224.654,117.85 224.805,118.001L224.789,118.001C224.893,118.099 225.016,118.238 225.144,118.433C226.281,120.169 231.525,129.748 231.525,139.146C231.525,145.49 230.408,150.355 228.748,153.24C227.487,155.431 225.896,156.546 224.214,156.546C222.533,156.546 220.942,155.431 219.681,153.24C218.02,150.355 216.903,145.49 216.903,139.146C216.903,129.756 222.175,120.22 223.285,118.46C223.425,118.237 223.548,118.089 223.632,118.001ZM224.228,120.632C222.596,123.523 218.731,131.382 218.731,139.146C218.731,144.936 219.678,149.396 221.193,152.03C222.05,153.519 223.071,154.39 224.214,154.39C225.358,154.39 226.378,153.519 227.235,152.03C228.751,149.396 229.698,144.936 229.698,139.146C229.698,131.391 225.869,123.512 224.228,120.632Z" vector-effect="non-scaling-stroke"/>
                    </g>
                    <g transform="matrix(0.933333,0,0,3.73437,14.8667,-177.734)">
                        <path style="fill:rgb(251,237,204);" d="M223.036,65L223.036,56.967C223.036,56.888 222.796,56.825 222.5,56.825C222.204,56.825 221.964,56.888 221.964,56.967L221.964,65C221.964,65.078 222.204,65.142 222.5,65.142C222.796,65.142 223.036,65.078 223.036,65Z" vector-effect="non-scaling-stroke"/>
                    </g>
                    <g transform="matrix(0.933333,0,0,2.48958,14.8667,-96.8226)">
                        <path style="fill:rgb(239,183,27);fill-opacity:0.65;" d="M223.036,65L223.036,56.967C223.036,56.849 222.796,56.754 222.5,56.754C222.204,56.754 221.964,56.849 221.964,56.967L221.964,65C221.964,65.117 222.204,65.213 222.5,65.213C222.796,65.213 223.036,65.117 223.036,65Z" vector-effect="non-scaling-stroke"/>
                    </g>
                    <g transform="matrix(0.933333,0,0,1,14.8667,0)">
                        <path style="fill:rgb(239,183,27);" d="M223.036,65L223.036,56.967C223.036,56.674 222.796,56.437 222.5,56.437C222.204,56.437 221.964,56.674 221.964,56.967L221.964,65C221.964,65.292 222.204,65.529 222.5,65.529C222.796,65.529 223.036,65.292 223.036,65Z" vector-effect="non-scaling-stroke"/>
                    </g>
                </g>
            </g>
            <g id="pot">
                <g transform="matrix(-1.44903,1.77455e-16,-1.95472e-16,-1.59615,584.88,400.083)">
                    <path style="fill:white;stroke:rgb(20,46,123);stroke-width:0.66px;" d="M248.359,142.895L220.755,142.895L224.895,125.353L244.219,125.353L248.359,142.895Z" vector-effect="non-scaling-stroke"/>
                </g>
                <path style="fill:rgb(20,46,123);fill-opacity:0.06;" d="M252,172L265,172L259,200L246,200L252,172Z" vector-effect="non-scaling-stroke"/>
                <g transform="matrix(1,0,0,1,0,-1)">
                    <g transform="matrix(1.15512,0,0,1,-40.7077,1.29375)">
                        <path style="fill:none;stroke:rgb(20,46,123);stroke-opacity:0.13;stroke-width:0.46px;" d="M263.789,176.706L248.206,176.706" vector-effect="non-scaling-stroke"/>
                    </g>
                    <g transform="matrix(0.898426,0,0,1,27.0051,1.29375)">
                        <path style="fill:none;stroke:rgb(20,46,123);stroke-opacity:0.39;stroke-width:0.53px;" d="M263.789,176.706L248.206,176.706" vector-effect="non-scaling-stroke"/>
                    </g>
                    <g transform="matrix(0.513386,0,0,1,128.574,1.29375)">
                        <path style="fill:none;stroke:rgb(20,46,123);stroke-opacity:0.65;stroke-width:0.63px;" d="M263.789,176.706L248.206,176.706" vector-effect="non-scaling-stroke"/>
                    </g>
                </g>
                <g transform="matrix(1,0,0,1,-1,5)">
                    <g transform="matrix(1.15512,0,0,1,-40.7077,1.29375)">
                        <path style="fill:none;stroke:rgb(20,46,123);stroke-opacity:0.13;stroke-width:0.46px;" d="M263.789,176.706L248.206,176.706" vector-effect="non-scaling-stroke"/>
                    </g>
                    <g transform="matrix(0.898426,0,0,1,27.0051,1.29375)">
                        <path style="fill:none;stroke:rgb(20,46,123);stroke-opacity:0.39;stroke-width:0.53px;" d="M263.789,176.706L248.206,176.706" vector-effect="non-scaling-stroke"/>
                    </g>
                    <g transform="matrix(0.513386,0,0,1,128.574,1.29375)">
                        <path style="fill:none;stroke:rgb(20,46,123);stroke-opacity:0.65;stroke-width:0.63px;" d="M263.789,176.706L248.206,176.706" vector-effect="non-scaling-stroke"/>
                    </g>
                </g>
                <g transform="matrix(1,0,0,1,-3,11)">
                    <g transform="matrix(1.15512,0,0,1,-40.7077,1.29375)">
                        <path style="fill:none;stroke:rgb(20,46,123);stroke-opacity:0.13;stroke-width:0.46px;" d="M263.789,176.706L248.206,176.706" vector-effect="non-scaling-stroke"/>
                    </g>
                    <g transform="matrix(0.898426,0,0,1,27.0051,1.29375)">
                        <path style="fill:none;stroke:rgb(20,46,123);stroke-opacity:0.39;stroke-width:0.53px;" d="M263.789,176.706L248.206,176.706" vector-effect="non-scaling-stroke"/>
                    </g>
                    <g transform="matrix(0.513386,0,0,1,128.574,1.29375)">
                        <path style="fill:none;stroke:rgb(20,46,123);stroke-opacity:0.65;stroke-width:0.63px;" d="M263.789,176.706L248.206,176.706" vector-effect="non-scaling-stroke"/>
                    </g>
                </g>
                <g transform="matrix(1,0,0,1,-4,17)">
                    <g transform="matrix(1.15512,0,0,1,-40.7077,1.29375)">
                        <path style="fill:none;stroke:rgb(20,46,123);stroke-opacity:0.13;stroke-width:0.46px;" d="M263.789,176.706L248.206,176.706" vector-effect="non-scaling-stroke"/>
                    </g>
                    <g transform="matrix(0.898426,0,0,1,27.0051,1.29375)">
                        <path style="fill:none;stroke:rgb(20,46,123);stroke-opacity:0.39;stroke-width:0.53px;" d="M263.789,176.706L248.206,176.706" vector-effect="non-scaling-stroke"/>
                    </g>
                    <g transform="matrix(0.513386,0,0,1,128.574,1.29375)">
                        <path style="fill:none;stroke:rgb(20,46,123);stroke-opacity:0.65;stroke-width:0.63px;" d="M263.789,176.706L248.206,176.706" vector-effect="non-scaling-stroke"/>
                    </g>
                </g>
            </g>
        </g>
        <g transform="matrix(1,0,0,1,-6,0)" id="pencil">
            <g transform="matrix(1.75416,0,0,1.07794,-97.0933,-14.0223)">
                <path style="fill:white;" d="M130.6,188.575C130.6,186.911 129.77,185.56 128.747,185.56L124.472,185.56C123.449,185.56 122.619,186.911 122.619,188.575L122.619,195.532C122.619,197.196 123.449,198.547 124.472,198.547L128.747,198.547C129.77,198.547 130.6,197.196 130.6,195.532L130.6,188.575Z" vector-effect="non-scaling-stroke"/>
                <path style="fill:rgb(20,46,123);" d="M130.885,188.575C130.885,186.655 129.927,185.096 128.747,185.096L124.472,185.096C123.292,185.096 122.334,186.655 122.334,188.575L122.334,195.532C122.334,197.452 123.292,199.011 124.472,199.011L128.747,199.011C129.927,199.011 130.885,197.452 130.885,195.532C130.885,195.532 130.885,188.575 130.885,188.575ZM130.315,188.575L130.315,195.532C130.315,196.94 129.613,198.083 128.747,198.083C128.747,198.083 124.472,198.083 124.472,198.083C123.606,198.083 122.904,196.94 122.904,195.532C122.904,195.532 122.904,188.575 122.904,188.575C122.904,187.167 123.606,186.023 124.472,186.023C124.472,186.023 128.747,186.023 128.747,186.023C129.613,186.023 130.315,187.167 130.315,188.575Z" vector-effect="non-scaling-stroke"/>
            </g>
            <g transform="matrix(1.50357,0,0,0.769958,-64.3657,47.1269)">
                <path style="fill:rgb(20,46,123);fill-opacity:0.06;" d="M130.6,188.575C130.6,186.911 129.908,185.56 129.056,185.56L124.163,185.56C123.311,185.56 122.619,186.911 122.619,188.575L122.619,195.532C122.619,197.196 123.311,198.547 124.163,198.547L129.056,198.547C129.908,198.547 130.6,197.196 130.6,195.532L130.6,188.575Z" vector-effect="non-scaling-stroke"/>
            </g>
            <g transform="matrix(1,0,0,1,6,0)">
                <path style="fill:white;stroke:rgb(20,46,123);stroke-width:1px;stroke-linejoin:miter;" d="M128,186L199.98,186L213,193L199.98,200L128,200L128,186Z" vector-effect="non-scaling-stroke"/>
            </g>
            <g transform="matrix(3.02461,0,0,0.890931,-235.162,22.1764)">
                <rect style="fill:rgb(20,46,123);fill-opacity:0.06;" height="11.224" width="23.805" y="188.369" x="122.096" vector-effect="non-scaling-stroke"/>
            </g>
            <g transform="matrix(1,0,0,1,1.53926,0.488179)">
                <g transform="matrix(0.965926,0.258819,-0.258819,0.965926,49.344,-30.3561)">
                    <g transform="matrix(1,0,0,1.58025,6,-113.606)">
                        <path style="fill:rgb(20,46,123);fill-opacity:0.39;" d="M137.211,197.512L137.211,193.082C137.211,192.995 137.099,192.924 136.961,192.924C136.823,192.924 136.711,192.995 136.711,193.082L136.711,197.512C136.711,197.599 136.823,197.67 136.961,197.67C137.099,197.67 137.211,197.599 137.211,197.512Z" vector-effect="non-scaling-stroke"/>
                    </g>
                    <g transform="matrix(1,0,0,0.902998,6,19.159)">
                        <path style="fill:rgb(20,46,123);" d="M137.211,197.512L137.211,193.082C137.211,192.929 137.099,192.805 136.961,192.805C136.823,192.805 136.711,192.929 136.711,193.082L136.711,197.512C136.711,197.665 136.823,197.789 136.961,197.789C137.099,197.789 137.211,197.665 137.211,197.512Z" vector-effect="non-scaling-stroke"/>
                    </g>
                </g>
                <g transform="matrix(0.965926,0.258819,-0.258819,0.965926,53.344,-30.3561)">
                    <g transform="matrix(1,0,0,1.58025,6,-113.606)">
                        <path style="fill:rgb(20,46,123);fill-opacity:0.39;" d="M137.211,197.512L137.211,193.082C137.211,192.995 137.099,192.924 136.961,192.924C136.823,192.924 136.711,192.995 136.711,193.082L136.711,197.512C136.711,197.599 136.823,197.67 136.961,197.67C137.099,197.67 137.211,197.599 137.211,197.512Z" vector-effect="non-scaling-stroke"/>
                    </g>
                    <g transform="matrix(1,0,0,0.902998,6,19.159)">
                        <path style="fill:rgb(20,46,123);" d="M137.211,197.512L137.211,193.082C137.211,192.929 137.099,192.805 136.961,192.805C136.823,192.805 136.711,192.929 136.711,193.082L136.711,197.512C136.711,197.665 136.823,197.789 136.961,197.789C137.099,197.789 137.211,197.665 137.211,197.512Z" vector-effect="non-scaling-stroke"/>
                    </g>
                </g>
                <g transform="matrix(0.965926,0.258819,-0.258819,0.965926,57.344,-30.3561)">
                    <g transform="matrix(1,0,0,1.58025,6,-113.606)">
                        <path style="fill:rgb(20,46,123);fill-opacity:0.39;" d="M137.211,197.512L137.211,193.082C137.211,192.995 137.099,192.924 136.961,192.924C136.823,192.924 136.711,192.995 136.711,193.082L136.711,197.512C136.711,197.599 136.823,197.67 136.961,197.67C137.099,197.67 137.211,197.599 137.211,197.512Z" vector-effect="non-scaling-stroke"/>
                    </g>
                    <g transform="matrix(1,0,0,0.902998,6,19.159)">
                        <path style="fill:rgb(20,46,123);" d="M137.211,197.512L137.211,193.082C137.211,192.929 137.099,192.805 136.961,192.805C136.823,192.805 136.711,192.929 136.711,193.082L136.711,197.512C136.711,197.665 136.823,197.789 136.961,197.789C137.099,197.789 137.211,197.665 137.211,197.512Z" vector-effect="non-scaling-stroke"/>
                    </g>
                </g>
                <g transform="matrix(0.965926,0.258819,-0.258819,0.965926,61.344,-30.3561)">
                    <g transform="matrix(1,0,0,1.58025,6,-113.606)">
                        <path style="fill:rgb(20,46,123);fill-opacity:0.39;" d="M137.211,197.512L137.211,193.082C137.211,192.995 137.099,192.924 136.961,192.924C136.823,192.924 136.711,192.995 136.711,193.082L136.711,197.512C136.711,197.599 136.823,197.67 136.961,197.67C137.099,197.67 137.211,197.599 137.211,197.512Z" vector-effect="non-scaling-stroke"/>
                    </g>
                    <g transform="matrix(1,0,0,0.902998,6,19.159)">
                        <path style="fill:rgb(20,46,123);" d="M137.211,197.512L137.211,193.082C137.211,192.929 137.099,192.805 136.961,192.805C136.823,192.805 136.711,192.929 136.711,193.082L136.711,197.512C136.711,197.665 136.823,197.789 136.961,197.789C137.099,197.789 137.211,197.665 137.211,197.512Z" vector-effect="non-scaling-stroke"/>
                    </g>
                </g>
                <g transform="matrix(0.965926,0.258819,-0.258819,0.965926,65.344,-30.3561)">
                    <g transform="matrix(1,0,0,1.58025,6,-113.606)">
                        <path style="fill:rgb(20,46,123);fill-opacity:0.39;" d="M137.211,197.512L137.211,193.082C137.211,192.995 137.099,192.924 136.961,192.924C136.823,192.924 136.711,192.995 136.711,193.082L136.711,197.512C136.711,197.599 136.823,197.67 136.961,197.67C137.099,197.67 137.211,197.599 137.211,197.512Z" vector-effect="non-scaling-stroke"/>
                    </g>
                    <g transform="matrix(1,0,0,0.902998,6,19.159)">
                        <path style="fill:rgb(20,46,123);" d="M137.211,197.512L137.211,193.082C137.211,192.929 137.099,192.805 136.961,192.805C136.823,192.805 136.711,192.929 136.711,193.082L136.711,197.512C136.711,197.665 136.823,197.789 136.961,197.789C137.099,197.789 137.211,197.665 137.211,197.512Z" vector-effect="non-scaling-stroke"/>
                    </g>
                </g>
                <g transform="matrix(0.965926,0.258819,-0.258819,0.965926,69.344,-30.3561)">
                    <g transform="matrix(1,0,0,1.58025,6,-113.606)">
                        <path style="fill:rgb(20,46,123);fill-opacity:0.39;" d="M137.211,197.512L137.211,193.082C137.211,192.995 137.099,192.924 136.961,192.924C136.823,192.924 136.711,192.995 136.711,193.082L136.711,197.512C136.711,197.599 136.823,197.67 136.961,197.67C137.099,197.67 137.211,197.599 137.211,197.512Z" vector-effect="non-scaling-stroke"/>
                    </g>
                    <g transform="matrix(1,0,0,0.902998,6,19.159)">
                        <path style="fill:rgb(20,46,123);" d="M137.211,197.512L137.211,193.082C137.211,192.929 137.099,192.805 136.961,192.805C136.823,192.805 136.711,192.929 136.711,193.082L136.711,197.512C136.711,197.665 136.823,197.789 136.961,197.789C137.099,197.789 137.211,197.665 137.211,197.512Z" vector-effect="non-scaling-stroke"/>
                    </g>
                </g>
                <g transform="matrix(0.965926,0.258819,-0.258819,0.965926,73.344,-30.3561)">
                    <g transform="matrix(1,0,0,1.58025,6,-113.606)">
                        <path style="fill:rgb(20,46,123);fill-opacity:0.39;" d="M137.211,197.512L137.211,193.082C137.211,192.995 137.099,192.924 136.961,192.924C136.823,192.924 136.711,192.995 136.711,193.082L136.711,197.512C136.711,197.599 136.823,197.67 136.961,197.67C137.099,197.67 137.211,197.599 137.211,197.512Z" vector-effect="non-scaling-stroke"/>
                    </g>
                    <g transform="matrix(1,0,0,0.902998,6,19.159)">
                        <path style="fill:rgb(20,46,123);" d="M137.211,197.512L137.211,193.082C137.211,192.929 137.099,192.805 136.961,192.805C136.823,192.805 136.711,192.929 136.711,193.082L136.711,197.512C136.711,197.665 136.823,197.789 136.961,197.789C137.099,197.789 137.211,197.665 137.211,197.512Z" vector-effect="non-scaling-stroke"/>
                    </g>
                </g>
                <g transform="matrix(0.965926,0.258819,-0.258819,0.965926,77.344,-30.3561)">
                    <g transform="matrix(1,0,0,1.58025,6,-113.606)">
                        <path style="fill:rgb(20,46,123);fill-opacity:0.39;" d="M137.211,197.512L137.211,193.082C137.211,192.995 137.099,192.924 136.961,192.924C136.823,192.924 136.711,192.995 136.711,193.082L136.711,197.512C136.711,197.599 136.823,197.67 136.961,197.67C137.099,197.67 137.211,197.599 137.211,197.512Z" vector-effect="non-scaling-stroke"/>
                    </g>
                    <g transform="matrix(1,0,0,0.902998,6,19.159)">
                        <path style="fill:rgb(20,46,123);" d="M137.211,197.512L137.211,193.082C137.211,192.929 137.099,192.805 136.961,192.805C136.823,192.805 136.711,192.929 136.711,193.082L136.711,197.512C136.711,197.665 136.823,197.789 136.961,197.789C137.099,197.789 137.211,197.665 137.211,197.512Z" vector-effect="non-scaling-stroke"/>
                    </g>
                </g>
                <g transform="matrix(0.965926,0.258819,-0.258819,0.965926,81.344,-30.3561)">
                    <g transform="matrix(1,0,0,1.58025,6,-113.606)">
                        <path style="fill:rgb(20,46,123);fill-opacity:0.39;" d="M137.211,197.512L137.211,193.082C137.211,192.995 137.099,192.924 136.961,192.924C136.823,192.924 136.711,192.995 136.711,193.082L136.711,197.512C136.711,197.599 136.823,197.67 136.961,197.67C137.099,197.67 137.211,197.599 137.211,197.512Z" vector-effect="non-scaling-stroke"/>
                    </g>
                    <g transform="matrix(1,0,0,0.902998,6,19.159)">
                        <path style="fill:rgb(20,46,123);" d="M137.211,197.512L137.211,193.082C137.211,192.929 137.099,192.805 136.961,192.805C136.823,192.805 136.711,192.929 136.711,193.082L136.711,197.512C136.711,197.665 136.823,197.789 136.961,197.789C137.099,197.789 137.211,197.665 137.211,197.512Z" vector-effect="non-scaling-stroke"/>
                    </g>
                </g>
                <g transform="matrix(0.965926,0.258819,-0.258819,0.965926,85.344,-30.3561)">
                    <g transform="matrix(1,0,0,1.58025,6,-113.606)">
                        <path style="fill:rgb(20,46,123);fill-opacity:0.39;" d="M137.211,197.512L137.211,193.082C137.211,192.995 137.099,192.924 136.961,192.924C136.823,192.924 136.711,192.995 136.711,193.082L136.711,197.512C136.711,197.599 136.823,197.67 136.961,197.67C137.099,197.67 137.211,197.599 137.211,197.512Z" vector-effect="non-scaling-stroke"/>
                    </g>
                    <g transform="matrix(1,0,0,0.902998,6,19.159)">
                        <path style="fill:rgb(20,46,123);" d="M137.211,197.512L137.211,193.082C137.211,192.929 137.099,192.805 136.961,192.805C136.823,192.805 136.711,192.929 136.711,193.082L136.711,197.512C136.711,197.665 136.823,197.789 136.961,197.789C137.099,197.789 137.211,197.665 137.211,197.512Z" vector-effect="non-scaling-stroke"/>
                    </g>
                </g>
                <g transform="matrix(0.965926,0.258819,-0.258819,0.965926,89.344,-30.3561)">
                    <g transform="matrix(1,0,0,1.58025,6,-113.606)">
                        <path style="fill:rgb(20,46,123);fill-opacity:0.39;" d="M137.211,197.512L137.211,193.082C137.211,192.995 137.099,192.924 136.961,192.924C136.823,192.924 136.711,192.995 136.711,193.082L136.711,197.512C136.711,197.599 136.823,197.67 136.961,197.67C137.099,197.67 137.211,197.599 137.211,197.512Z" vector-effect="non-scaling-stroke"/>
                    </g>
                    <g transform="matrix(1,0,0,0.902998,6,19.159)">
                        <path style="fill:rgb(20,46,123);" d="M137.211,197.512L137.211,193.082C137.211,192.929 137.099,192.805 136.961,192.805C136.823,192.805 136.711,192.929 136.711,193.082L136.711,197.512C136.711,197.665 136.823,197.789 136.961,197.789C137.099,197.789 137.211,197.665 137.211,197.512Z" vector-effect="non-scaling-stroke"/>
                    </g>
                </g>
                <g transform="matrix(0.965926,0.258819,-0.258819,0.965926,93.344,-30.3561)">
                    <g transform="matrix(1,0,0,1.58025,6,-113.606)">
                        <path style="fill:rgb(20,46,123);fill-opacity:0.39;" d="M137.211,197.512L137.211,193.082C137.211,192.995 137.099,192.924 136.961,192.924C136.823,192.924 136.711,192.995 136.711,193.082L136.711,197.512C136.711,197.599 136.823,197.67 136.961,197.67C137.099,197.67 137.211,197.599 137.211,197.512Z" vector-effect="non-scaling-stroke"/>
                    </g>
                    <g transform="matrix(1,0,0,0.902998,6,19.159)">
                        <path style="fill:rgb(20,46,123);" d="M137.211,197.512L137.211,193.082C137.211,192.929 137.099,192.805 136.961,192.805C136.823,192.805 136.711,192.929 136.711,193.082L136.711,197.512C136.711,197.665 136.823,197.789 136.961,197.789C137.099,197.789 137.211,197.665 137.211,197.512Z" vector-effect="non-scaling-stroke"/>
                    </g>
                </g>
                <g transform="matrix(0.965926,0.258819,-0.258819,0.965926,97.344,-30.3561)">
                    <g transform="matrix(1,0,0,1.58025,6,-113.606)">
                        <path style="fill:rgb(20,46,123);fill-opacity:0.39;" d="M137.211,197.512L137.211,193.082C137.211,192.995 137.099,192.924 136.961,192.924C136.823,192.924 136.711,192.995 136.711,193.082L136.711,197.512C136.711,197.599 136.823,197.67 136.961,197.67C137.099,197.67 137.211,197.599 137.211,197.512Z" vector-effect="non-scaling-stroke"/>
                    </g>
                    <g transform="matrix(1,0,0,0.902998,6,19.159)">
                        <path style="fill:rgb(20,46,123);" d="M137.211,197.512L137.211,193.082C137.211,192.929 137.099,192.805 136.961,192.805C136.823,192.805 136.711,192.929 136.711,193.082L136.711,197.512C136.711,197.665 136.823,197.789 136.961,197.789C137.099,197.789 137.211,197.665 137.211,197.512Z" vector-effect="non-scaling-stroke"/>
                    </g>
                </g>
                <g transform="matrix(0.965926,0.258819,-0.258819,0.965926,101.344,-30.3561)">
                    <g transform="matrix(1,0,0,1.58025,6,-113.606)">
                        <path style="fill:rgb(20,46,123);fill-opacity:0.39;" d="M137.211,197.512L137.211,193.082C137.211,192.995 137.099,192.924 136.961,192.924C136.823,192.924 136.711,192.995 136.711,193.082L136.711,197.512C136.711,197.599 136.823,197.67 136.961,197.67C137.099,197.67 137.211,197.599 137.211,197.512Z" vector-effect="non-scaling-stroke"/>
                    </g>
                    <g transform="matrix(1,0,0,0.902998,6,19.159)">
                        <path style="fill:rgb(20,46,123);" d="M137.211,197.512L137.211,193.082C137.211,192.929 137.099,192.805 136.961,192.805C136.823,192.805 136.711,192.929 136.711,193.082L136.711,197.512C136.711,197.665 136.823,197.789 136.961,197.789C137.099,197.789 137.211,197.665 137.211,197.512Z" vector-effect="non-scaling-stroke"/>
                    </g>
                </g>
                <g transform="matrix(0.965926,0.258819,-0.258819,0.965926,105.344,-30.3561)">
                    <g transform="matrix(1,0,0,1.58025,6,-113.606)">
                        <path style="fill:rgb(20,46,123);fill-opacity:0.39;" d="M137.211,197.512L137.211,193.082C137.211,192.995 137.099,192.924 136.961,192.924C136.823,192.924 136.711,192.995 136.711,193.082L136.711,197.512C136.711,197.599 136.823,197.67 136.961,197.67C137.099,197.67 137.211,197.599 137.211,197.512Z" vector-effect="non-scaling-stroke"/>
                    </g>
                    <g transform="matrix(1,0,0,0.902998,6,19.159)">
                        <path style="fill:rgb(20,46,123);" d="M137.211,197.512L137.211,193.082C137.211,192.929 137.099,192.805 136.961,192.805C136.823,192.805 136.711,192.929 136.711,193.082L136.711,197.512C136.711,197.665 136.823,197.789 136.961,197.789C137.099,197.789 137.211,197.665 137.211,197.512Z" vector-effect="non-scaling-stroke"/>
                    </g>
                </g>
            </g>
            <g transform="matrix(0.749477,0,0,1.12351,31.6348,-23.682)">
                <rect style="fill:white;stroke:rgb(20,46,123);stroke-width:1.05px;" height="12.461" width="8.006" y="186.631" x="128.577" vector-effect="non-scaling-stroke"/>
            </g>
            <g>
                <g transform="matrix(1,0,0,0.786966,6.48848,44.102)">
                    <path style="fill:none;stroke:rgb(20,46,123);stroke-opacity:0.39;stroke-width:0.56px;stroke-linejoin:miter;" d="M124.512,187.934L124.512,195.559" vector-effect="non-scaling-stroke"/>
                </g>
                <g transform="matrix(1,0,0,0.393483,6.48848,120.551)">
                    <path style="fill:none;stroke:rgb(20,46,123);stroke-width:0.66px;stroke-linejoin:miter;" d="M124.512,187.934L124.512,195.559" vector-effect="non-scaling-stroke"/>
                </g>
            </g>
            <g transform="matrix(1,0,0,1,6,0)">
                <path style="fill:white;" d="M193,196.5L200,193L193,189.5L200,186L214,193L200,200L193,196.5Z" vector-effect="non-scaling-stroke"/>
                <path style="fill:rgb(20,46,123);" d="M198.882,193L192.776,189.947C192.607,189.863 192.5,189.689 192.5,189.5C192.5,189.311 192.607,189.137 192.776,189.053L199.776,185.553C199.917,185.482 200.083,185.482 200.224,185.553L214.224,192.553C214.393,192.637 214.5,192.811 214.5,193C214.5,193.189 214.393,193.363 214.224,193.447L200.224,200.447C200.083,200.518 199.917,200.518 199.776,200.447L192.776,196.947C192.607,196.863 192.5,196.689 192.5,196.5C192.5,196.311 192.607,196.137 192.776,196.053L198.882,193ZM194.118,196.5L200,199.441L212.882,193L200,186.559L194.118,189.5L200.224,192.553C200.393,192.637 200.5,192.811 200.5,193C200.5,193.189 200.393,193.363 200.224,193.447L194.118,196.5Z" vector-effect="non-scaling-stroke"/>
            </g>
            <g transform="matrix(1,0,0,1,-5.50193,39)">
                <path style="fill:none;stroke:rgb(20,46,123);stroke-width:0.5px;stroke-linejoin:miter;stroke-dasharray:1,1.5,0,0;" d="M213.417,157.224L219.176,154.436" vector-effect="non-scaling-stroke"/>
            </g>
            <g transform="matrix(1,0,0,1,6,0)">
                <path style="fill:rgb(20,46,123);" d="M214,193L210,195L210,191L214,193Z" vector-effect="non-scaling-stroke"/>
            </g>
        </g>
    </g></g></svg>