<svg id="Layer_1" data-name="Layer 1" xmlns="http://www.w3.org/2000/svg" viewBox="0 0 100 100"><defs><style>.cls-1{fill:none;stroke:#00c7b1;stroke-miterlimit:10;}</style></defs><path class="cls-1" d="M34.31,39.26l1.16,2.35a1.7,1.7,0,0,0,1.26.91l2.59.38a1.68,1.68,0,0,1,.93,2.86l-1.87,1.82a1.68,1.68,0,0,0-.49,1.48l.45,2.59a1.67,1.67,0,0,1-2.43,1.76l-2.32-1.22a1.66,1.66,0,0,0-1.56,0l-2.31,1.22a1.67,1.67,0,0,1-2.43-1.76l.44-2.59a1.7,1.7,0,0,0-.48-1.48l-1.88-1.82a1.68,1.68,0,0,1,.93-2.86l2.59-.38a1.66,1.66,0,0,0,1.26-.91l1.16-2.35A1.67,1.67,0,0,1,34.31,39.26Zm34.38,0,1.16,2.35a1.66,1.66,0,0,0,1.26.91l2.59.38a1.68,1.68,0,0,1,.93,2.86l-1.88,1.82a1.7,1.7,0,0,0-.48,1.48l.44,2.59a1.67,1.67,0,0,1-2.42,1.76L68,52.19a1.66,1.66,0,0,0-1.56,0l-2.32,1.22a1.67,1.67,0,0,1-2.43-1.76l.45-2.59a1.7,1.7,0,0,0-.48-1.48l-1.88-1.82a1.68,1.68,0,0,1,.93-2.86l2.59-.38a1.68,1.68,0,0,0,1.26-.91l1.16-2.35A1.67,1.67,0,0,1,68.69,39.26ZM52.33,6.35,54.13,10a2.61,2.61,0,0,0,2,1.43l4,.58a2.6,2.6,0,0,1,1.44,4.44l-2.91,2.84a2.6,2.6,0,0,0-.75,2.3l.69,4a2.61,2.61,0,0,1-3.78,2.74l-3.6-1.9a2.65,2.65,0,0,0-2.42,0l-3.6,1.9a2.61,2.61,0,0,1-3.78-2.74l.69-4a2.57,2.57,0,0,0-.75-2.3l-2.91-2.84A2.61,2.61,0,0,1,39.88,12l4-.58a2.6,2.6,0,0,0,2-1.43l1.8-3.64A2.59,2.59,0,0,1,52.33,6.35Zm-33,42.78a3.58,3.58,0,0,0-6.13,2.5v13.6a10.16,10.16,0,0,0,2,6.06l3.87,5.29a10.5,10.5,0,0,0,1,1.19L31.86,89.53l-1.12,1.11,4.47,4.46L48.59,81.72l-4.46-4.47-.67.67-.74-3.22A10.23,10.23,0,0,0,40,69.76l-9.1-9.11a3.16,3.16,0,0,0-4.46,4.47L32.28,71a1.58,1.58,0,0,1-2.23,2.23l-8.47-8.47a2.32,2.32,0,0,1-.69-1.58l-.47-11.62a3.58,3.58,0,0,0-1.05-2.39Zm12.51,40.4,11.6-11.61M80.63,49.15a3.58,3.58,0,0,0-1,2.39l-.46,11.62a2.41,2.41,0,0,1-.69,1.58L70,73.21A1.58,1.58,0,0,1,67.72,71l5.86-5.86a3.16,3.16,0,1,0-4.46-4.47L60,69.76a10.23,10.23,0,0,0-2.74,4.94l-.74,3.22-.67-.67-4.46,4.47L64.79,95.1l4.47-4.46-1.12-1.11L79.9,77.77a10.5,10.5,0,0,0,1-1.19l3.88-5.29a10.22,10.22,0,0,0,2-6.06V51.63a3.54,3.54,0,0,0-1-2.53,3.6,3.6,0,0,0-5.08,0ZM56.54,77.92l11.6,11.61"/></svg>